<?xml version="1.0" encoding="UTF-8"?>
<!DOCTYPE svg PUBLIC "-//W3C//DTD SVG 1.1//EN" "http://www.w3.org/Graphics/SVG/1.1/DTD/svg11.dtd">
<!-- Creator: CorelDRAW 2019 (64-Bit) -->
<svg xmlns="http://www.w3.org/2000/svg" xml:space="preserve" width="192px" height="192px" version="1.1" shape-rendering="geometricPrecision" text-rendering="geometricPrecision" image-rendering="optimizeQuality" fill-rule="evenodd" clip-rule="evenodd"
viewBox="0 0 2304000 2304000"
 xmlns:xlink="http://www.w3.org/1999/xlink"
 xmlns:xodm="http://www.corel.com/coreldraw/odm/2003">
 <g id="Plan_x0020_1">
  <metadata id="CorelCorpID_0Corel-Layer"/>
  <polygon fill="#2C3E50" points="1152000,0 1283190,155510 1450160,39250 1536630,223420 1728000,154340 1763850,354610 1966580,337410 1949390,540140 2149660,576000 2080580,767370 2264740,853840 2148490,1020810 2304000,1152000 2148490,1283190 2264740,1450160 2080580,1536630 2149660,1728000 1949390,1763850 1966580,1966580 1763850,1949390 1728000,2149660 1536630,2080580 1450160,2264740 1283190,2148490 1152000,2304000 1020810,2148490 853840,2264740 767370,2080580 576000,2149660 540140,1949390 337410,1966580 354610,1763850 154340,1728000 223420,1536630 39250,1450160 155510,1283190 0,1152000 155510,1020810 39250,853840 223420,767370 154340,576000 354610,540140 337410,337410 540140,354610 576000,154340 767370,223420 853840,39250 1020810,155510 "/>
 </g>
</svg>
