<?xml version="1.0" encoding="UTF-8"?>
<!DOCTYPE svg PUBLIC "-//W3C//DTD SVG 1.1//EN" "http://www.w3.org/Graphics/SVG/1.1/DTD/svg11.dtd">
<!-- Creator: CorelDRAW 2019 (64-Bit) -->
<svg xmlns="http://www.w3.org/2000/svg" xml:space="preserve" width="194px" height="194px" version="1.1" shape-rendering="geometricPrecision" text-rendering="geometricPrecision" image-rendering="optimizeQuality" fill-rule="evenodd" clip-rule="evenodd"
viewBox="0 0 2382000 2382000"
 xmlns:xlink="http://www.w3.org/1999/xlink"
 xmlns:xodm="http://www.corel.com/coreldraw/odm/2003">
 <g id="Plan_x0020_1">
  <metadata id="CorelCorpID_0Corel-Layer"/>
  <g>
   <polygon fill="white" points="1191000,12270 1325240,171390 1496080,52440 1584560,240880 1780370,170190 1817050,375110 2024490,357520 2006890,564950 2211810,601640 2141130,797450 2329560,885930 2210610,1056770 2369730,1191000 2210610,1325240 2329560,1496080 2141130,1584560 2211810,1780370 2006890,1817050 2024490,2024490 1817050,2006890 1780370,2211810 1584560,2141130 1496080,2329560 1325240,2210610 1191000,2369730 1056770,2210610 885930,2329560 797450,2141130 601640,2211810 564950,2006890 357520,2024490 375110,1817050 170190,1780370 240880,1584560 52440,1496080 171390,1325240 12270,1191000 171390,1056770 52440,885930 240880,797450 170190,601640 375110,564950 357520,357520 564950,375110 601640,170190 797450,240880 885930,52440 1056770,171390 "/>
   <polygon id="1" fill="none" fill-opacity="0.188235" stroke="black" stroke-width="24560" stroke-linecap="round" stroke-linejoin="round" stroke-miterlimit="22.9256" stroke-opacity="0.188235" points="1191000,12270 1325240,171390 1496080,52440 1584560,240880 1780370,170190 1817050,375110 2024490,357520 2006890,564950 2211810,601640 2141130,797450 2329560,885930 2210610,1056770 2369730,1191000 2210610,1325240 2329560,1496080 2141130,1584560 2211810,1780370 2006890,1817050 2024490,2024490 1817050,2006890 1780370,2211810 1584560,2141130 1496080,2329560 1325240,2210610 1191000,2369730 1056770,2210610 885930,2329560 797450,2141130 601640,2211810 564950,2006890 357520,2024490 375110,1817050 170190,1780370 240880,1584560 52440,1496080 171390,1325240 12270,1191000 171390,1056770 52440,885930 240880,797450 170190,601640 375110,564950 357520,357520 564950,375110 601640,170190 797450,240880 885930,52440 1056770,171390 "/>
  </g>
 </g>
</svg>
