<?xml version="1.0" encoding="UTF-8"?>
<!DOCTYPE svg PUBLIC "-//W3C//DTD SVG 1.1//EN" "http://www.w3.org/Graphics/SVG/1.1/DTD/svg11.dtd">
<!-- Creator: CorelDRAW 2019 (64-Bit) -->
<svg xmlns="http://www.w3.org/2000/svg" xml:space="preserve" width="33px" height="32px" version="1.1" shape-rendering="geometricPrecision" text-rendering="geometricPrecision" image-rendering="optimizeQuality" fill-rule="evenodd" clip-rule="evenodd"
viewBox="0 0 2836 2750"
 xmlns:xlink="http://www.w3.org/1999/xlink"
 xmlns:xodm="http://www.corel.com/coreldraw/odm/2003">
 <g id="Plan_x0020_1">
  <metadata id="CorelCorpID_0Corel-Layer"/>
  <path fill="white" d="M1891 348c494,43 945,371 945,769 0,405 -454,725 -945,768l0 607c0,71 -29,136 -76,182 -47,47 -111,76 -182,76l-1375 0c-71,0 -136,-29 -182,-76 -47,-46 -76,-111 -76,-182 0,-732 0,-1489 0,-2234 0,-71 29,-136 76,-182 46,-47 111,-76 182,-76l1375 0c71,0 135,29 182,76 47,46 76,111 76,182l0 90zm-172 1540c-77,-3 -153,-14 -227,-33 -192,143 -394,143 -633,190l206 -410c-544,-483 -140,-1250 654,-1290l0 -87c0,-24 -10,-45 -26,-61 -15,-15 -37,-25 -60,-25l-1375 0c-24,0 -45,10 -61,25 -15,16 -25,37 -25,61l0 1890c0,24 10,45 25,61 16,15 37,25 60,25l1 0 1375 0 1 0c23,0 44,-10 59,-25 16,-16 26,-37 26,-61l0 -260zm-862 690l176 0c47,-1 84,-39 84,-86 0,-47 -38,-86 -86,-86l-172 0c-47,0 -86,39 -86,86 0,47 38,85 84,86zm1635 -1805c48,0 86,39 86,86 0,48 -38,86 -86,86l-172 0 0 86 172 0c48,0 86,39 86,86l0 258c0,48 -38,86 -86,86l-258 0c-47,0 -86,-38 -86,-86 0,-47 39,-86 86,-86l172 0 0 -86 -172 0c-47,0 -86,-38 -86,-86l0 -258c0,-47 39,-86 86,-86l258 0zm-773 604c0,48 -39,86 -86,86 -48,0 -86,-38 -86,-86l0 -516c0,-47 38,-85 86,-85 32,0 60,17 75,44l96 143 102 -151c26,-40 79,-50 118,-24 25,17 38,44 38,71l1 516c0,48 -39,86 -86,86 -48,0 -86,-38 -86,-86l0 -232 -14 20c-6,10 -14,19 -25,25 -39,27 -92,16 -118,-23l-15 -22 0 234zm-344 -604c47,0 86,39 86,86 0,48 -39,86 -86,86l-172 0 0 86 172 0c47,0 86,39 86,86l0 258c0,48 -39,86 -86,86l-258 0c-47,0 -86,-38 -86,-86 0,-47 39,-86 86,-86l172 0 0 -86 -172 0c-47,0 -86,-38 -86,-86l0 -258c0,-47 39,-86 86,-86l258 0z"/>
 </g>
</svg>
