<?xml version="1.0" encoding="UTF-8"?>
<!DOCTYPE svg PUBLIC "-//W3C//DTD SVG 1.1//EN" "http://www.w3.org/Graphics/SVG/1.1/DTD/svg11.dtd">
<!-- Creator: CorelDRAW 2019 (64-Bit) -->
<svg xmlns="http://www.w3.org/2000/svg" xml:space="preserve" width="48px" height="48px" version="1.1" shape-rendering="geometricPrecision" text-rendering="geometricPrecision" image-rendering="optimizeQuality" fill-rule="evenodd" clip-rule="evenodd"
viewBox="0 0 90000 90000"
 xmlns:xlink="http://www.w3.org/1999/xlink"
 xmlns:xodm="http://www.corel.com/coreldraw/odm/2003">
 <g id="Plan_x0020_1">
  <metadata id="CorelCorpID_0Corel-Layer"/>
  <rect fill="none" width="90000" height="90000"/>
  <path fill="#2C3E50" fill-rule="nonzero" d="M41500 59410c-270,1000 -1300,1590 -2300,1330 -1000,-270 -1590,-1300 -1330,-2300l1320 -4890 -3410 -7780c-510,-1540 -1540,-2780 -2830,-3530 -1210,-690 -2650,-940 -4100,-560l-1780 480c-10,40 -20,90 -10,140 2190,11270 5430,22640 7790,33880 210,1010 -440,2010 -1450,2220 -1010,210 -2000,-440 -2210,-1450 -1480,-7030 -7930,-33460 -7800,-33940 -190,-960 -20,-1940 440,-2730 450,-770 1160,-1380 2080,-1670l1970 -540c2470,-650 4910,-240 6940,930 2060,1180 4600,3410 5410,5840l710 2150 7610 -28390c530,-1990 1830,-3580 3500,-4540 1660,-960 3690,-1290 5680,-760 1990,530 3580,1830 4540,3500l10 0c960,1660 1290,3690 760,5690l-4630 17270c1230,-340 2560,-360 3880,-10 1990,540 3580,1840 4540,3500l10 10c300,530 540,1090 710,1680 1550,-720 3350,-930 5120,-460 1990,540 3580,1840 4540,3500l0 10c560,970 910,2060 990,3190 1360,-470 2870,-550 4350,-160l20 0c1990,530 3580,1830 4540,3500 960,1660 1290,3690 760,5680 -20,50 -30,100 -50,150l-3830 14350c-1200,4460 -4130,8040 -7880,10200 -3750,2170 -8320,2920 -12780,1720l-920 -240c-1000,-270 -1590,-1300 -1330,-2300 270,-1000 1300,-1590 2300,-1320l910 250c3460,930 7020,340 9940,-1350 2920,-1690 5210,-4470 6140,-7930l3840 -14340c10,-50 20,-110 40,-160 260,-990 100,-2010 -380,-2840 -480,-830 -1280,-1480 -2270,-1750l-10 0c-990,-270 -2010,-100 -2840,380 -830,480 -1480,1270 -1740,2260l-10 10c-260,1000 -1290,1600 -2290,1330 -1000,-270 -1600,-1300 -1330,-2300l0 -10c60,-200 120,-390 190,-580 10,-110 20,-210 50,-310l730 -2720c270,-1000 100,-2010 -380,-2850 -480,-830 -1270,-1480 -2270,-1740 -990,-270 -2010,-100 -2840,380 -830,470 -1490,1270 -1750,2270l-490 1810c-270,1000 -1300,1600 -2300,1330 -1000,-270 -1590,-1300 -1320,-2300l480 -1810c120,-420 260,-810 430,-1190 -10,-200 0,-420 60,-630 270,-1000 100,-2010 -370,-2850 -480,-830 -1280,-1480 -2280,-1740 -990,-270 -2010,-100 -2840,380 -820,470 -1460,1250 -1740,2220l-10 50 -970 3620 -490 1810c-270,1000 -1290,1600 -2290,1330 -1000,-270 -1600,-1300 -1330,-2300l480 -1810 980 -3620 6300 -23550c270,-990 100,-2000 -380,-2840 -470,-830 -1270,-1480 -2270,-1750 -990,-260 -2010,-100 -2840,380 -830,480 -1480,1280 -1750,2270l-10670 39840zm39280 -53200l6290 9890c140,190 250,410 320,660 250,1010 -360,2020 -1360,2270l-10840 2710c-370,110 -770,110 -1160,-30 -980,-350 -1490,-1420 -1140,-2390l1770 -4950c-11630,-3710 -23260,-5500 -34630,-5200 -11540,300 -22840,2760 -33650,7540 -950,420 -2050,-10 -2470,-960 -420,-940 10,-2050 960,-2460 11240,-4980 23020,-7540 35070,-7850 11830,-320 23910,1540 35980,5410l1520 -4270 10 10c130,-380 390,-720 750,-950 870,-560 2020,-300 2580,570z"/>
 </g>
</svg>
