<?xml version="1.0" encoding="UTF-8"?>
<!DOCTYPE svg PUBLIC "-//W3C//DTD SVG 1.1//EN" "http://www.w3.org/Graphics/SVG/1.1/DTD/svg11.dtd">
<!-- Creator: CorelDRAW 2019 (64-Bit) -->
<svg xmlns="http://www.w3.org/2000/svg" xml:space="preserve" width="48px" height="48px" version="1.1" shape-rendering="geometricPrecision" text-rendering="geometricPrecision" image-rendering="optimizeQuality" fill-rule="evenodd" clip-rule="evenodd"
viewBox="0 0 55380 55380"
 xmlns:xlink="http://www.w3.org/1999/xlink"
 xmlns:xodm="http://www.corel.com/coreldraw/odm/2003">
 <g id="Plan_x0020_1">
  <metadata id="CorelCorpID_0Corel-Layer"/>
  <rect fill="none" width="55380" height="55380"/>
  <path fill="#2C3E50" fill-rule="nonzero" d="M25540 38290c-170,620 -800,980 -1420,820 -610,-170 -980,-800 -810,-1420l800 -3010 -2090 -4780c-320,-950 -950,-1720 -1740,-2170 -750,-430 -1630,-590 -2530,-350l-1090 300c-10,20 -10,50 -10,80 1350,6940 3340,13940 4800,20850 130,620 -270,1230 -890,1360 -630,130 -1240,-270 -1370,-890 -910,-4320 -4880,-20590 -4800,-20880 -110,-590 -10,-1190 280,-1680 270,-480 710,-850 1280,-1030l1210 -330c1520,-400 3020,-150 4270,570 1260,730 2830,2100 3330,3590l440 1330 4680 -17470c320,-1230 1130,-2210 2150,-2800 1020,-590 2270,-790 3500,-470 1220,330 2200,1130 2790,2160l10 0c590,1020 790,2270 460,3500l-2850 10630c760,-210 1580,-220 2390,-10 1230,330 2210,1130 2800,2160l0 0c190,330 340,670 440,1040 950,-450 2060,-580 3150,-290 1220,330 2200,1130 2790,2160l10 0c340,600 550,1270 610,1970 830,-290 1760,-340 2670,-100l10 0c1230,320 2210,1130 2800,2150 590,1020 790,2270 460,3500 -10,30 -20,60 -30,90l-2350 8830c-740,2740 -2550,4950 -4860,6280 -2300,1330 -5110,1790 -7860,1050l-560 -140c-620,-170 -980,-800 -820,-1420 170,-610 800,-980 1410,-810l570 150c2120,570 4310,210 6110,-830 1800,-1040 3210,-2750 3780,-4880l2360 -8820c10,-30 20,-70 20,-100 170,-610 70,-1240 -230,-1750 -300,-510 -790,-910 -1400,-1070l0 -10c-610,-160 -1230,-60 -1750,240 -510,290 -910,780 -1070,1390l0 10c-170,610 -800,980 -1420,810 -610,-160 -980,-800 -810,-1410l0 -10c30,-120 70,-240 110,-360 10,-60 20,-120 40,-190l440 -1670c170,-610 70,-1240 -230,-1750 -290,-510 -780,-910 -1400,-1080 -610,-160 -1230,-60 -1750,240 -510,290 -910,780 -1070,1400l-300 1110c-170,620 -800,980 -1420,820 -610,-170 -980,-800 -810,-1410l300 -1120c70,-260 150,-500 260,-730 -10,-130 0,-260 40,-390 160,-610 60,-1240 -230,-1750 -300,-510 -790,-910 -1400,-1080 -610,-160 -1240,-60 -1750,240 -510,290 -900,770 -1070,1370l-10 20 -600 2240 -300 1110c-160,610 -790,980 -1410,820 -610,-170 -980,-800 -820,-1420l300 -1110 600 -2230 3880 -14490c170,-610 60,-1240 -230,-1750 -290,-510 -790,-910 -1400,-1080 -610,-160 -1240,-60 -1750,240 -510,290 -910,780 -1070,1400l-6570 24510zm-6310 -32620l5490 -4800c480,-420 1200,-370 1620,100 180,210 270,450 280,700l170 2900c4000,-530 7520,-370 10590,140 3180,520 5860,1410 8050,2300 590,240 880,910 640,1500 -240,590 -910,870 -1500,640 -2080,-840 -4600,-1690 -7560,-2170 -2910,-480 -6260,-620 -10080,-100l180 3090c40,640 -450,1180 -1080,1220 -260,10 -500,-60 -700,-190l-5920 -3470c-550,-320 -740,-1020 -410,-1570 60,-110 140,-210 230,-290z"/>
 </g>
</svg>
