<?xml version="1.0" encoding="UTF-8"?>
<!DOCTYPE svg PUBLIC "-//W3C//DTD SVG 1.1//EN" "http://www.w3.org/Graphics/SVG/1.1/DTD/svg11.dtd">
<!-- Creator: CorelDRAW 2019 (64-Bit) -->
<svg xmlns="http://www.w3.org/2000/svg" xml:space="preserve" width="48px" height="48px" version="1.1" shape-rendering="geometricPrecision" text-rendering="geometricPrecision" image-rendering="optimizeQuality" fill-rule="evenodd" clip-rule="evenodd"
viewBox="0 0 55380 55380"
 xmlns:xlink="http://www.w3.org/1999/xlink"
 xmlns:xodm="http://www.corel.com/coreldraw/odm/2003">
 <g id="Plan_x0020_1">
  <metadata id="CorelCorpID_0Corel-Layer"/>
  <rect fill="none" width="55380" height="55380"/>
  <path fill="#2C3E50" fill-rule="nonzero" d="M22800 39020c170,620 -200,1250 -810,1410 -620,170 -1250,-200 -1420,-810l-800 -3010 -4210 -3100c-750,-660 -1680,-1010 -2590,-1010 -860,0 -1710,310 -2360,960l-800 810c0,20 10,50 40,80 4630,5330 9860,10390 14570,15650 430,480 380,1210 -90,1630 -470,420 -1200,380 -1620,-90 -2950,-3290 -14520,-15390 -14600,-15690 -400,-450 -610,-1020 -610,-1590 0,-550 190,-1090 600,-1530l880 -890c1120,-1110 2540,-1640 3980,-1640 1460,0 3500,400 4680,1450l1050 920 -4690 -17470c-320,-1220 -120,-2470 470,-3500 590,-1020 1570,-1820 2800,-2150 1220,-330 2470,-120 3490,470l10 0c1020,590 1820,1570 2150,2790l2850 10640c550,-560 1260,-990 2070,-1200 1220,-330 2470,-130 3490,460l10 10c320,180 630,410 900,670 600,-860 1490,-1520 2580,-1820 1230,-320 2480,-120 3500,470l0 0c600,350 1120,820 1510,1400 580,-670 1360,-1180 2270,-1420l10 -10c1230,-330 2480,-120 3500,470 1020,590 1820,1570 2150,2800 10,30 20,60 20,90l2370 8820c740,2750 270,5560 -1060,7870 -1330,2300 -3530,4110 -6280,4850l-560 150c-620,170 -1250,-200 -1420,-820 -160,-610 200,-1240 820,-1410l560 -150c2130,-570 3840,-1970 4880,-3770 1040,-1800 1400,-3990 830,-6120l-2360 -8820c-10,-30 -20,-70 -30,-100 -160,-610 -560,-1100 -1080,-1390 -510,-300 -1130,-400 -1740,-240l-10 0c-610,160 -1100,570 -1390,1080 -300,510 -400,1130 -240,1740l0 10c170,610 -200,1250 -810,1410 -620,170 -1250,-200 -1420,-820l0 0c-30,-120 -60,-250 -80,-370 -30,-60 -50,-120 -60,-180l-450 -1670c-170,-620 -570,-1110 -1080,-1400 -510,-300 -1140,-400 -1750,-240 -610,170 -1100,570 -1400,1080 -290,510 -390,1140 -230,1750l300 1120c160,610 -200,1250 -820,1410 -610,170 -1250,-200 -1410,-820l-300 -1110c-70,-260 -110,-510 -140,-770 -70,-100 -120,-220 -160,-350 -160,-620 -560,-1110 -1070,-1400 -520,-300 -1140,-400 -1750,-230 -620,160 -1110,560 -1400,1070 -290,510 -400,1120 -240,1720l0 30 600 2230 300 1120c160,610 -200,1250 -820,1410 -610,170 -1250,-200 -1410,-820l-300 -1110 -600 -2230 -3880 -14490c-160,-610 -560,-1100 -1080,-1400 -510,-290 -1130,-390 -1740,-230 -620,160 -1110,570 -1400,1080 -300,510 -400,1140 -240,1750l6570 24510zm-19840 -29110l3870 -6090c340,-530 1050,-690 1580,-350 230,140 390,350 470,580l0 0 940 2620c7420,-2370 14860,-3520 22140,-3330 7410,200 14660,1770 21580,4840 580,250 850,930 590,1520 -250,580 -940,840 -1520,590 -6650,-2950 -13600,-4460 -20700,-4650 -7000,-180 -14160,920 -21320,3200l1090 3050c220,600 -100,1260 -700,1470 -240,90 -480,90 -710,20l-6670 -1670c-620,-150 -990,-780 -840,-1390 40,-160 110,-300 200,-410z"/>
 </g>
</svg>
