<?xml version="1.0" encoding="UTF-8"?>
<!DOCTYPE svg PUBLIC "-//W3C//DTD SVG 1.1//EN" "http://www.w3.org/Graphics/SVG/1.1/DTD/svg11.dtd">
<!-- Creator: CorelDRAW 2019 (64-Bit) -->
<svg xmlns="http://www.w3.org/2000/svg" xml:space="preserve" width="48px" height="48px" version="1.1" shape-rendering="geometricPrecision" text-rendering="geometricPrecision" image-rendering="optimizeQuality" fill-rule="evenodd" clip-rule="evenodd"
viewBox="0 0 144000 144000"
 xmlns:xlink="http://www.w3.org/1999/xlink"
 xmlns:xodm="http://www.corel.com/coreldraw/odm/2003">
 <g id="Plan_x0020_1">
  <metadata id="CorelCorpID_0Corel-Layer"/>
  <rect fill="none" width="144000" height="144000"/>
  <path fill="#ffffff" fill-rule="nonzero" d="M59290 101440c430,1600 -520,3250 -2120,3680 -1600,430 -3250,-530 -3680,-2130l-2100 -7830 -10940 -8040c-1940,-1720 -4360,-2630 -6740,-2630 -2230,0 -4430,810 -6130,2510l-2080 2080c10,70 40,140 100,210 12050,13850 25640,27030 37900,40710 1100,1230 990,3120 -240,4230 -1230,1100 -3130,990 -4230,-240 -7670,-8560 -37750,-40020 -37950,-40790 -1030,-1180 -1570,-2670 -1570,-4140 0,-1430 490,-2840 1540,-3980l2300 -2310c2900,-2890 6610,-4270 10360,-4270 3790,0 9090,1040 12160,3770l2710 2410 -12170 -45420c-850,-3190 -320,-6440 1210,-9100 1540,-2660 4090,-4740 7280,-5600 3180,-850 6430,-320 9090,1210l10 0c2660,1530 4740,4080 5590,7280l7410 27630c1440,-1450 3270,-2550 5380,-3110 3180,-850 6420,-330 9090,1210l10 10c840,490 1630,1080 2340,1760 1560,-2240 3890,-3970 6720,-4730 3180,-850 6430,-320 9090,1210l10 10c1550,900 2900,2130 3930,3630 1510,-1730 3530,-3060 5900,-3700l10 -10c3190,-860 6440,-330 9100,1210 2660,1530 4740,4080 5600,7270 20,90 40,170 50,250l6160 22940c1920,7140 710,14450 -2750,20450 -3460,5990 -9190,10680 -16340,12600l-1460 400c-1600,430 -3240,-520 -3670,-2120 -430,-1600 520,-3240 2120,-3670l1470 -380c5530,-1490 9980,-5150 12680,-9830 2700,-4670 3640,-10360 2160,-15900l-6140 -22940c-30,-80 -60,-160 -80,-240 -420,-1590 -1470,-2870 -2800,-3640 -1330,-770 -2960,-1030 -4540,-610l-20 10c-1590,410 -2850,1460 -3620,2800 -770,1320 -1040,2950 -610,4520l0 20c430,1600 -520,3250 -2120,3670 -1600,430 -3250,-520 -3670,-2120l-10 -10c-80,-320 -160,-640 -210,-960 -70,-150 -130,-300 -170,-470l-1170 -4350c-420,-1590 -1470,-2870 -2800,-3640 -1330,-770 -2950,-1030 -4550,-600 -1590,420 -2860,1470 -3630,2800 -770,1320 -1030,2950 -610,4540l780 2910c430,1600 -520,3240 -2120,3670 -1600,430 -3250,-520 -3670,-2120l-780 -2900c-180,-660 -300,-1330 -360,-1990 -180,-270 -330,-580 -420,-910 -430,-1610 -1470,-2880 -2800,-3650 -1330,-770 -2960,-1030 -4550,-610 -1590,430 -2860,1470 -3630,2810 -760,1310 -1030,2910 -630,4470l20 70 1550 5800 780 2900c430,1600 -520,3240 -2120,3670 -1600,430 -3250,-520 -3680,-2120l-770 -2890 -1560 -5800 -10090 -37670c-430,-1590 -1470,-2870 -2800,-3640 -1330,-770 -2950,-1030 -4550,-600 -1590,420 -2860,1470 -3630,2800 -770,1330 -1040,2950 -610,4540l17080 63740zm9940 -97690l14270 12500c240,210 450,460 610,740 840,1420 360,3260 -1060,4090l-15400 9020c-520,340 -1150,520 -1810,490 -1650,-90 -2920,-1510 -2830,-3160l470 -8050c-9920,-1350 -18640,-980 -26210,260 -7700,1260 -14250,3450 -19650,5640 -1530,620 -3280,-120 -3900,-1650 -620,-1540 120,-3290 1660,-3910 5710,-2310 12660,-4630 20930,-5990 7980,-1310 17140,-1710 27520,-340l440 -7550c40,-650 280,-1290 740,-1810 1090,-1240 2980,-1370 4220,-280z"/>
 </g>
</svg>
