<?xml version="1.0" encoding="UTF-8"?>
<!DOCTYPE svg PUBLIC "-//W3C//DTD SVG 1.1//EN" "http://www.w3.org/Graphics/SVG/1.1/DTD/svg11.dtd">
<!-- Creator: CorelDRAW 2019 (64-Bit) -->
<svg xmlns="http://www.w3.org/2000/svg" xml:space="preserve" width="32px" height="32px" version="1.1" shape-rendering="geometricPrecision" text-rendering="geometricPrecision" image-rendering="optimizeQuality" fill-rule="evenodd" clip-rule="evenodd"
viewBox="0 0 1759 1768"
 xmlns:xlink="http://www.w3.org/1999/xlink"
 xmlns:xodm="http://www.corel.com/coreldraw/odm/2003">
 <g id="Plan_x0020_1">
  <metadata id="CorelCorpID_0Corel-Layer"/>
  <path fill="white" fill-rule="nonzero" d="M0 1767l124 -453c-76,-133 -117,-284 -117,-438 1,-483 393,-876 876,-876 234,0 454,91 620,257 165,165 256,386 256,620 0,482 -393,875 -876,875 -146,0 -291,-36 -419,-106l-464 121zm486 -280c123,73 241,117 397,117 401,0 728,-326 728,-728 0,-402 -325,-728 -727,-728 -402,0 -729,326 -729,728 0,164 48,286 129,415l-74 268 276 -72 0 0zm838 -402c-5,-9 -20,-15 -42,-26 -21,-11 -129,-64 -149,-71 -20,-7 -35,-11 -49,11 -15,22 -57,71 -70,86 -12,14 -25,16 -47,5 -22,-11 -93,-34 -176,-108 -65,-59 -109,-130 -122,-152 -13,-22 -1,-34 10,-45 10,-10 22,-25 32,-38 12,-13 15,-22 23,-37 7,-14 3,-27 -2,-38 -6,-11 -50,-119 -68,-162 -18,-43 -36,-37 -49,-38l-42 -1c-15,0 -38,6 -58,28 -20,22 -77,75 -77,182 0,108 79,212 89,227 11,14 155,235 374,330 52,23 93,36 125,46 52,17 100,14 138,9 42,-6 129,-53 148,-104 18,-51 18,-95 12,-104l0 0z"/>
 </g>
</svg>
